<svg xmlns="http://www.w3.org/2000/svg" width="24" height="24" viewBox="0 0 24 24" fill="none">
<path fill-rule="evenodd" clip-rule="evenodd" d="M8.18881 4.18882C8.24852 4.12896 8.31944 4.08148 8.39752 4.04908C8.4756 4.01668 8.55931 4 8.64384 4C8.72838 4 8.81208 4.01668 8.89016 4.04908C8.96825 4.08148 9.03917 4.12896 9.09887 4.18882L16.8112 11.9011C16.871 11.9608 16.9185 12.0318 16.9509 12.1098C16.9833 12.1879 17 12.2716 17 12.3562C17 12.4407 16.9833 12.5244 16.9509 12.6025C16.9185 12.6806 16.871 12.7515 16.8112 12.8112L9.09887 20.5235C8.97819 20.6442 8.81451 20.712 8.64384 20.712C8.47317 20.712 8.3095 20.6442 8.18881 20.5235C8.06813 20.4028 8.00034 20.2391 8.00034 20.0685C8.00034 19.8978 8.06813 19.7341 8.18881 19.6134L15.4474 12.3562L8.18881 5.09887C8.12896 5.03917 8.08148 4.96825 8.04908 4.89017C8.01668 4.81208 8 4.72838 8 4.64384C8 4.55931 8.01668 4.4756 8.04908 4.39752C8.08148 4.31944 8.12896 4.24852 8.18881 4.18882Z" fill="#737373"/>
</svg>