<svg xmlns="http://www.w3.org/2000/svg" width="24" height="24" viewBox="0 0 24 24" fill="none">
<path fill-rule="evenodd" clip-rule="evenodd" d="M16.8112 4.18882C16.871 4.24852 16.9185 4.31944 16.9509 4.39752C16.9833 4.4756 17 4.55931 17 4.64384C17 4.72838 16.9833 4.81208 16.9509 4.89017C16.9185 4.96825 16.871 5.03917 16.8112 5.09887L9.55261 12.3562L16.8112 19.6134C16.9319 19.7341 16.9997 19.8978 16.9997 20.0685C16.9997 20.2391 16.9319 20.4028 16.8112 20.5235C16.6905 20.6442 16.5268 20.712 16.3562 20.712C16.1855 20.712 16.0218 20.6442 15.9011 20.5235L8.18881 12.8112C8.12896 12.7515 8.08148 12.6806 8.04908 12.6025C8.01668 12.5244 8 12.4407 8 12.3562C8 12.2716 8.01668 12.1879 8.04908 12.1098C8.08148 12.0318 8.12896 11.9608 8.18881 11.9011L15.9011 4.18882C15.9608 4.12896 16.0318 4.08148 16.1098 4.04908C16.1879 4.01668 16.2716 4 16.3562 4C16.4407 4 16.5244 4.01668 16.6025 4.04908C16.6806 4.08148 16.7515 4.12896 16.8112 4.18882Z" fill="#737373"/>
</svg>