<svg xmlns="http://www.w3.org/2000/svg" width="12.866" height="12.866" viewBox="0 0 12.866 12.866">
  <g id="icon_plan" transform="translate(-69.715 -4.354)">
    <path d="M17.509,5H5.357A.357.357,0,0,0,5,5.357V16.079a.357.357,0,0,0,.357.357H9.878l1.689,1.351a.357.357,0,1,0,.446-.558L10.227,15.8l-.011-.007-.032-.021-.029-.016-.032-.013-.035-.011-.031-.006-.04,0H9.289V14.65a.357.357,0,0,0-.715,0v1.072H5.715v-5H8.574v1.787a.357.357,0,0,0,.715,0V10.718H13.22a.357.357,0,0,0,0-.715H5.715V5.715H17.151V10H15.364a.357.357,0,0,0,0,.715h1.787v5H12.863a.357.357,0,1,0,0,.715h4.646a.357.357,0,0,0,.357-.357V5.357A.357.357,0,0,0,17.509,5Z" transform="translate(64.715 -0.646)" fill="#6c6c6c"/>
  </g>
</svg>