<svg xmlns="http://www.w3.org/2000/svg" width="12" height="12" viewBox="0 0 12 12">
  <g id="icon_square" transform="translate(-2.472 -3.25)">
    <path d="M14.993,5.323a.257.257,0,0,0,.257-.257V3.507a.257.257,0,0,0-.257-.257h-1.56a.257.257,0,0,0-.257.257V4.03H5.323V3.507a.257.257,0,0,0-.257-.257H3.507a.257.257,0,0,0-.257.257v1.56a.257.257,0,0,0,.257.257H4.03v7.853H3.507a.257.257,0,0,0-.257.257v1.56a.257.257,0,0,0,.257.257h1.56a.257.257,0,0,0,.257-.257V14.47h7.853v.523a.257.257,0,0,0,.257.257h1.56a.257.257,0,0,0,.257-.257v-1.56a.257.257,0,0,0-.257-.257H14.47V5.323Zm-1.3-1.56h1.046V4.81H13.69Zm-9.927,0H4.81V4.81H3.763ZM4.81,14.737H3.763V13.69H4.81Zm9.927,0H13.69V13.69h1.046Zm-.78-1.56h-.523a.257.257,0,0,0-.257.257v.523H5.323v-.523a.257.257,0,0,0-.257-.257H4.543V5.323h.523a.257.257,0,0,0,.257-.257V4.543h7.853v.523a.257.257,0,0,0,.257.257h.523v7.853Z" transform="translate(-0.778 0)" fill="#6c6c6c"/>
  </g>
</svg>