
<svg version="1.1" xmlns="http://www.w3.org/2000/svg" xmlns:xlink="http://www.w3.org/1999/xlink" width="24px" height="24px" viewBox="0,0,256,256"><g transform=""><g fill="#ffffff" fill-rule="evenodd" stroke="none" stroke-width="1" stroke-linecap="butt" stroke-linejoin="miter" stroke-miterlimit="10" stroke-dasharray="" stroke-dashoffset="0" font-family="none" font-weight="none" font-size="none" text-anchor="none" style="mix-blend-mode: normal"><g transform="scale(10.66667,10.66667)"><path d="M2.60938,1.5c-0.557,0 -1.01783,0.43619 -1.04883,0.99219c-0.03,0.544 -0.06055,1.10742 -0.06055,1.10742c0,10.431 8.46939,18.90039 18.90039,18.90039c0,0 0.56342,-0.03055 1.10742,-0.06055c0.556,-0.031 0.99219,-0.49183 0.99219,-1.04883c0,-1.119 0.00014,-2.92984 -0.00586,-4.08984c0,-0.281 -0.11345,-0.54909 -0.31445,-0.74609c-0.201,-0.196 -0.47095,-0.30288 -0.75195,-0.29688c-1.552,0.012 -3.1062,-0.28195 -4.6582,-0.87695c-0.355,-0.139 -0.75778,-0.07408 -1.05078,0.16992c-0.665,0.554 -1.84477,1.53633 -2.38477,1.98633c-0.172,0.143 -0.41447,0.16283 -0.60547,0.04883c-2.611,-1.58 -4.73345,-3.7025 -6.31445,-6.3125c-0.115,-0.192 -0.09517,-0.43642 0.04883,-0.60742c0.455,-0.546 1.45295,-1.74425 2.00195,-2.40625c0.235,-0.282 0.30655,-0.66862 0.18555,-1.01562c-0.535,-1.568 -0.83523,-3.13512 -0.86523,-4.70312c-0.005,-0.576 -0.47283,-1.04102 -1.04883,-1.04102zM13.92578,2.25c-0.414,0.002 -0.74809,0.33991 -0.74609,0.75391c0.002,0.413 0.33795,0.74809 0.75195,0.74609c1.617,-0.007 3.2337,0.61166 4.4707,1.84766c1.236,1.237 1.85466,2.8537 1.84766,4.4707c-0.002,0.414 0.33309,0.74995 0.74609,0.75195c0.414,0.002 0.75191,-0.33209 0.75391,-0.74609c0.009,-2.003 -0.75511,-4.00611 -2.28711,-5.53711c-1.531,-1.532 -3.53411,-2.29611 -5.53711,-2.28711zM13.92969,5.78516c-0.414,0 -0.75,0.336 -0.75,0.75c0,0.414 0.336,0.75 0.75,0.75c0.709,0 1.4257,0.26945 1.9707,0.81445c0.545,0.545 0.81445,1.2617 0.81445,1.9707c0,0.414 0.336,0.75 0.75,0.75c0.414,0 0.75,-0.336 0.75,-0.75c0,-1.091 -0.41491,-2.19225 -1.25391,-3.03125c-0.839,-0.838 -1.94025,-1.25391 -3.03125,-1.25391z"></path></g></g></g></svg>