<svg width="192" height="39" viewBox="0 0 192 39" fill="none" xmlns="http://www.w3.org/2000/svg">
<path d="M0.825 38V1.535H9.75V18.569L9.342 24.791H9.444C10.532 22.241 11.552 20.167 12.504 18.569L22.602 1.535H31.629V38H22.704V21.017L23.112 14.795H23.01C21.922 17.345 20.902 19.419 19.95 21.017L9.801 38H0.825ZM39.2742 38V1.535H48.1992V16.121H61.4592V1.535H70.3842V38H61.4592V23.72H48.1992V38H39.2742ZM78.0223 38V1.535H86.9473V15.611H90.6193L98.1673 1.535H107.755L97.9123 18.977V19.079L108.316 38H98.3203L90.6193 23.21H86.9473V38H78.0223ZM109.353 19.538C109.353 14.268 111.155 9.848 114.759 6.278C118.397 2.708 122.953 0.922997 128.427 0.922997C133.901 0.922997 138.44 2.708 142.044 6.278C145.682 9.848 147.501 14.268 147.501 19.538C147.501 24.944 145.682 29.483 142.044 33.155C138.44 36.793 133.901 38.612 128.427 38.612C122.953 38.612 118.397 36.793 114.759 33.155C111.155 29.483 109.353 24.944 109.353 19.538ZM118.584 19.538C118.584 22.632 119.536 25.233 121.44 27.341C123.344 29.415 125.673 30.452 128.427 30.452C131.181 30.452 133.51 29.415 135.414 27.341C137.318 25.233 138.27 22.632 138.27 19.538C138.27 16.58 137.318 14.098 135.414 12.092C133.51 10.086 131.181 9.083 128.427 9.083C125.673 9.083 123.344 10.086 121.44 12.092C119.536 14.098 118.584 16.58 118.584 19.538ZM151.75 38L154.759 1.535H164.449L169.753 16.937L171.589 22.955H171.691C172.371 20.507 172.983 18.501 173.527 16.937L178.831 1.535H188.521L191.479 38H182.554L181.432 21.578C181.364 20.762 181.33 19.844 181.33 18.824C181.33 17.804 181.347 16.988 181.381 16.376L181.432 15.458H181.33C180.514 18.008 179.834 20.048 179.29 21.578L175.465 32.135H167.815L163.99 21.578L161.95 15.458H161.848C161.984 17.702 161.984 19.742 161.848 21.578L160.726 38H151.75Z" fill="white"/>
</svg>
