
<svg width="223" height="63" xmlns="http://www.w3.org/2000/svg" class="injected-svg">
 <g>
  <title>background</title>
  <rect x="-1" y="-1" width="225" height="65" id="canvas_background" fill="none"/>
 </g>

 <g>
  <title>Layer 1</title>
  <g fill="#cfa173" id="icon-svg">
   <path transform="translate(56.5,186.25) scale(0.75) " d="m-51.444335,-197.310345l-23.889,26.677l4.889,0.327c4.877,0.325 4.905,0.309 10.39,-5.925c17.532,-15.927 30.727,-34.346 32.309,-35.305c1.423,-0.863 2.085,-0.724 3.11,0.653c1.711,2.301 1.823,2.267 4.499,-1.354l2.295,-3.103l-4.315,-4.397c-2.373,-2.418 -4.558,-4.363 -4.856,-4.323c-0.298,0.039 -11.292,12.077 -24.432,26.75m23.752,-3.596c-11.552,12.8 -22.48,24.961 -24.286,27.023l-3.283,3.75l5.353,-0.063l5.354,-0.063l9.197,-10.687c11.822,-13.738 27.284,-30.586 28.485,-31.04c0.514,-0.194 1.786,0.419 2.828,1.362c1.804,1.633 2.01,1.579 4.347,-1.138l2.454,-2.852l-4.117,-4.51c-2.265,-2.48 -4.391,-4.632 -4.724,-4.782c-0.333,-0.15 -10.057,10.2 -21.608,23m19.466,1.484c-12.28,13.591 -23.148,25.741 -24.151,27l-1.822,2.289l5,0l5.001,0l10.798,-12.25c18.709,-21.222 26.675,-29.75 27.778,-29.737c0.587,0.007 9.56,9.457 19.939,21l18.871,20.987l5.007,0l5.007,0l-2.378,-2.973c-4.615,-5.77 -45.387,-50.886 -46.05,-50.956c-0.369,-0.039 -10.719,11.049 -23,24.64m0.576,-9.321c-0.91,2.37 1.163,4.443 2.803,2.803c0.943,-0.943 0.842,-1.573 -0.463,-2.878c-1.561,-1.56 -1.715,-1.555 -2.34,0.075m-4.812,5.513c-2.688,2.807 -2.818,5.132 -0.283,5.066c2.004,-0.053 4.886,-4.798 3.941,-6.487c-0.703,-1.256 -1.322,-1.016 -3.658,1.421m20.408,16.097c0,2.762 0.278,3 3.5,3c3.222,0 3.5,-0.238 3.5,-3c0,-2.762 -0.278,-3 -3.5,-3c-3.222,0 -3.5,0.238 -3.5,3m10,0c0,2.667 0.333,3 3,3c2.667,0 3,-0.333 3,-3c0,-2.667 -0.333,-3 -3,-3c-2.667,0 -3,0.333 -3,3m-10,10c0,2.762 0.278,3 3.5,3c3.222,0 3.5,-0.238 3.5,-3c0,-2.762 -0.278,-3 -3.5,-3c-3.222,0 -3.5,0.238 -3.5,3m10,0c0,2.667 0.333,3 3,3c2.667,0 3,-0.333 3,-3c0,-2.667 -0.333,-3 -3,-3c-2.667,0 -3,0.333 -3,3" fill-rule="evenodd" id="svg_1"/>
  </g>
  <path d="m124.969251,60.909994l0.83,0l0,-7.2l-0.83,0l0,3.15l-4.67,0l0,-3.15l-0.84,0l0,7.2l0.84,0l0,-3.26l4.67,0l0,3.26zm9.05,-1.52c-0.49,0.51 -1.36,0.88 -2.33,0.88c-1.73,0 -2.88,-1.06 -2.95,-2.78l5.94,0c0.03,-0.2 0.05,-0.4 0.05,-0.68c0,-1.96 -1.41,-3.24 -3.27,-3.24c-2.36,0 -3.64,1.64 -3.64,3.74c0,2.27 1.55,3.74 3.82,3.74c0.96,0 2,-0.33 2.66,-1.02l-0.28,-0.64zm-2.64,-5.04c1.51,0 2.47,0.93 2.5,2.45l-5.18,0c0.14,-1.41 1.08,-2.45 2.68,-2.45zm3.91,8.38l0.78,0l0,-1.82l6.4,0l0,1.82l0.79,0l0,-2.6l-1.2,0l0,-6.42l-4.6,0l-0.11,2.03c-0.14,2.27 -0.72,3.81 -1.17,4.39l-0.89,0l0,2.6zm2.86,-6.67l0.1,-1.57l2.97,0l0,5.64l-4.16,0c0.37,-0.47 0.93,-1.99 1.09,-4.07zm6.64,4.85c0.66,0 1.46,0.05 2.35,0.05c2.15,0 3.22,-0.72 3.22,-2.03c0,-0.95 -0.5,-1.54 -1.73,-1.73l0,-0.03c0.95,-0.15 1.46,-0.87 1.46,-1.65c0,-1.31 -1.03,-1.86 -2.98,-1.86c-0.97,0 -1.69,0.05 -2.32,0.05l0,7.2zm2.56,-3.31c1.44,0 2.13,0.4 2.13,1.25c0,0.91 -0.78,1.32 -2.24,1.32c-0.66,0 -1.15,-0.01 -1.62,-0.03l0,-2.54l1.73,0zm-0.14,-3.15c1.09,0 2,0.24 2,1.2c0,0.76 -0.64,1.26 -1.68,1.26l-1.91,0l0,-2.43c0.4,-0.02 0.9,-0.03 1.59,-0.03zm6.11,6.46l4.8,-6l0,6l0.83,0l0,-7.2l-0.83,0l-4.8,6l0,-6l-0.83,0l0,7.2l0.83,0zm16.85,-7.2l-1.01,0l-2.8,3.46l2.99,3.74l1.01,0l-3.07,-3.74l2.88,-3.46zm-5.15,7.2l0.83,0l0,-7.2l-0.83,0l0,7.2zm-1.44,-3.74l-3.03,3.74l1.01,0l2.94,-3.74l-2.78,-3.46l-1.02,0l2.88,3.46zm9.21,3.74l4.8,-6l0,6l0.83,0l0,-7.2l-0.83,0l-4.8,6l0,-6l-0.83,0l0,7.2l0.83,0zm8.16,0l0.83,0l0,-5.94l2.9,3.89l0.05,0l2.8,-3.89l0,5.94l0.83,0l0,-7.2l-0.75,0l-2.88,4.02l-2.99,-4.02l-0.79,0l0,7.2zm9.44,-3.6c0,2.16 1.54,3.74 3.78,3.74c2.24,0 3.77,-1.58 3.77,-3.74c0,-2.16 -1.53,-3.74 -3.77,-3.74c-2.24,0 -3.78,1.58 -3.78,3.74zm0.88,0c0,-1.74 1.23,-2.96 2.9,-2.96c1.69,0 2.89,1.23 2.89,2.96c0,1.74 -1.2,2.96 -2.89,2.96c-1.68,0 -2.9,-1.23 -2.9,-2.96zm14.31,1.97c-0.5,0.57 -1.32,0.99 -2.24,0.99c-1.68,0 -3,-1.14 -3,-2.96c0,-1.71 1.32,-2.96 2.84,-2.96c0.83,0 1.63,0.21 2.27,0.78l0.4,-0.67c-0.69,-0.65 -1.68,-0.89 -2.8,-0.89c-2.05,0 -3.59,1.64 -3.59,3.74c0,2.27 1.59,3.74 3.81,3.74c1.06,0 2.11,-0.4 2.72,-1.16l-0.41,-0.61zm1.12,-4.74l2.86,0l0,6.37l0.83,0l0,-6.37l2.87,0l0,-0.83l-6.56,0l0,0.83zm8.03,6.37l2.11,0c2.24,0 2.96,-1.15 2.96,-2.42c0,-1.28 -0.64,-2.36 -2.85,-2.36l-1.39,0l0,-2.42l-0.83,0l0,7.2zm2.08,-4c1.52,0 2.11,0.59 2.11,1.6c0,1.02 -0.56,1.62 -2.13,1.62l-1.23,0l0,-3.22l1.25,0z" fill="#ffffff"/>
  <path d="m135.719251,35.339994c-1.44,1.17 -3.36,1.86 -5.37,1.86c-4.86,0 -8.19,-3.39 -8.19,-8.4c0,-4.98 3.24,-8.4 7.8,-8.4c2.19,0 3.81,0.54 5.19,1.56l1.17,-1.92c-1.5,-1.29 -3.69,-2.04 -6.39,-2.04c-6.57,0 -10.47,4.77 -10.47,10.8c0,6.54 4.35,10.8 10.65,10.8c2.61,0 5.22,-0.9 6.63,-2.34l-1.02,-1.92zm4.74,3.96l2.4,0l0,-13.5l-2.4,0l0,13.5zm-0.3,-18.57c0,0.99 0.72,1.56 1.56,1.56c0.75,0 1.47,-0.57 1.47,-1.56c0,-0.87 -0.72,-1.44 -1.47,-1.44c-0.84,0 -1.56,0.57 -1.56,1.44zm7.38,13.44c0,3.45 1.2,5.37 4.23,5.37c1.5,0 2.73,-0.54 3.45,-1.14l-0.75,-1.86c-0.48,0.36 -1.2,0.75 -2.13,0.75c-1.71,0 -2.4,-1.23 -2.4,-3.36l0,-5.88l4.95,0l0,-2.25l-4.95,0l0,-3.75l-2.4,0l0,12.12zm22.98,-8.37l-2.73,0l-3.12,8.55c-0.24,0.72 -0.45,1.41 -0.63,2.07c-0.27,-0.69 -0.51,-1.35 -0.81,-2.04l-3.96,-8.58l-2.88,0l6.48,13.5l-0.3,0.72c-0.9,2.16 -1.74,3.06 -2.88,3.06c-0.54,0 -1.05,-0.24 -1.5,-0.45l-0.78,1.83c0.72,0.48 1.53,0.84 2.55,0.84c1.92,0 3.18,-1.17 5.16,-6l5.4,-13.5zm12.3,9.81c-0.9,1.02 -2.25,1.74 -3.87,1.74c-2.67,0 -4.86,-1.83 -4.86,-4.8c0,-2.85 2.19,-4.8 4.62,-4.8c1.41,0 2.73,0.36 3.87,1.41l1.11,-1.89c-1.26,-1.26 -3.15,-1.77 -5.31,-1.77c-3.96,0 -6.84,3.12 -6.84,7.05c0,4.26 2.94,7.05 7.23,7.05c2.07,0 4.05,-0.78 5.19,-2.25l-1.14,-1.74zm2.64,-3.06c0,4.05 2.88,7.05 7.2,7.05c4.32,0 7.2,-3 7.2,-7.05c0,-4.05 -2.88,-7.05 -7.2,-7.05c-4.32,0 -7.2,3 -7.2,7.05zm2.55,0c0,-2.85 2.01,-4.8 4.65,-4.8c2.7,0 4.65,1.98 4.65,4.8c0,2.88 -1.95,4.8 -4.65,4.8c-2.7,0 -4.65,-1.98 -4.65,-4.8zm35.34,-2.1c0,-3.69 -1.86,-4.89 -4.35,-4.89c-2.04,0 -3.78,0.96 -4.74,2.34c-0.51,-1.41 -1.98,-2.34 -4.08,-2.34c-1.74,0 -3.48,0.78 -4.47,1.95l0,-1.71l-2.4,0l0,13.5l2.4,0l0,-9.66c0.69,-0.99 1.98,-1.83 3.54,-1.83c1.89,0 2.88,1.14 2.88,2.79l0,8.7l2.4,0l0,-8.58c0,-0.3 0,-0.72 -0.03,-0.96c0.63,-1.11 1.92,-1.95 3.54,-1.95c1.95,0 2.91,1.08 2.91,3.3l0,8.19l2.4,0l0,-8.85z" fill="#ffffff"/>
 </g>
</svg>